<mxfile host="app.diagrams.net" agent="Mozilla/5.0 (Windows NT 10.0; Win64; x64) AppleWebKit/537.36 (KHTML, like Gecko) Chrome/129.0.0.0 Safari/537.36 Edg/129.0.0.0" version="24.7.17">
  <diagram name="第 1 页" id="5yj743W3PWXgBj-xQnoX">
    <mxGraphModel dx="879" dy="554" grid="1" gridSize="10" guides="1" tooltips="1" connect="1" arrows="1" fold="1" page="1" pageScale="1" pageWidth="827" pageHeight="1169" math="0" shadow="0">
      <root>
        <mxCell id="0" />
        <mxCell id="1" parent="0" />
        <mxCell id="YATunz6LuZnl2APo-tTB-3" value="" style="endArrow=classic;html=1;rounded=0;strokeColor=#00CC00;strokeWidth=6;endSize=24;dashed=1;" parent="1" edge="1">
          <mxGeometry width="50" height="50" relative="1" as="geometry">
            <mxPoint x="760" y="443" as="sourcePoint" />
            <mxPoint x="760" y="1273" as="targetPoint" />
          </mxGeometry>
        </mxCell>
        <mxCell id="YATunz6LuZnl2APo-tTB-5" value="&lt;font style=&quot;font-size: 40px;&quot;&gt;图像坐标系X+方向&lt;/font&gt;" style="text;html=1;align=center;verticalAlign=middle;whiteSpace=wrap;rounded=0;fontSize=24;fontColor=#FF3333;fontStyle=1" parent="1" vertex="1">
          <mxGeometry x="1070" y="800" width="380" height="30" as="geometry" />
        </mxCell>
        <mxCell id="YATunz6LuZnl2APo-tTB-6" value="&lt;font style=&quot;font-size: 40px;&quot;&gt;图像坐标系Y+方向&lt;/font&gt;" style="text;html=1;align=center;verticalAlign=middle;whiteSpace=wrap;rounded=0;fontSize=24;fontColor=#00CC00;rotation=-90;fontStyle=1" parent="1" vertex="1">
          <mxGeometry x="520" y="1020" width="400" height="110" as="geometry" />
        </mxCell>
        <mxCell id="YATunz6LuZnl2APo-tTB-1" value="" style="endArrow=classic;html=1;rounded=0;strokeColor=#FF3333;strokeWidth=6;endSize=24;dashed=1;" parent="1" edge="1">
          <mxGeometry width="50" height="50" relative="1" as="geometry">
            <mxPoint x="473.7" y="780" as="sourcePoint" />
            <mxPoint x="1443.7" y="780" as="targetPoint" />
          </mxGeometry>
        </mxCell>
        <mxCell id="XbT9prpmFgvPseqlX-kr-5" value="" style="group" parent="1" vertex="1" connectable="0">
          <mxGeometry x="433.7" y="343.7331964289664" width="980.5425349601742" height="663.2668035710336" as="geometry" />
        </mxCell>
        <mxCell id="ulbORYLSHq138kg4GUdA-19" value="" style="rounded=0;whiteSpace=wrap;html=1;rotation=-35;" parent="XbT9prpmFgvPseqlX-kr-5" vertex="1">
          <mxGeometry x="690" y="142.26680357103362" width="190" height="190" as="geometry" />
        </mxCell>
        <mxCell id="ulbORYLSHq138kg4GUdA-3" value="&lt;font color=&quot;#007fff&quot; style=&quot;font-size: 40px;&quot;&gt;物体边长&lt;/font&gt;" style="text;html=1;align=center;verticalAlign=middle;whiteSpace=wrap;rounded=0;fontSize=24;fontColor=#FF3333;fontStyle=1;rotation=-35;" parent="XbT9prpmFgvPseqlX-kr-5" vertex="1">
          <mxGeometry x="516.3" y="106.26680357103362" width="380" height="30" as="geometry" />
        </mxCell>
        <mxCell id="ulbORYLSHq138kg4GUdA-24" value="&lt;font color=&quot;#000000&quot; style=&quot;font-size: 40px;&quot;&gt;正方形物体X+方向&lt;/font&gt;" style="text;html=1;align=center;verticalAlign=middle;whiteSpace=wrap;rounded=0;fontSize=24;fontColor=#FF3333;fontStyle=1;rotation=-35;" parent="XbT9prpmFgvPseqlX-kr-5" vertex="1">
          <mxGeometry x="626.3" y="236.26680357103362" width="380" height="30" as="geometry" />
        </mxCell>
        <mxCell id="ulbORYLSHq138kg4GUdA-23" value="" style="endArrow=classic;html=1;rounded=0;strokeColor=#000000;strokeWidth=6;endSize=24;entryX=1.02;entryY=0.446;entryDx=0;entryDy=0;entryPerimeter=0;" parent="XbT9prpmFgvPseqlX-kr-5" edge="1">
          <mxGeometry width="50" height="50" relative="1" as="geometry">
            <mxPoint x="720.3" y="271.2668035710336" as="sourcePoint" />
            <mxPoint x="850.0273277387907" y="186.26295168514525" as="targetPoint" />
          </mxGeometry>
        </mxCell>
        <mxCell id="ulbORYLSHq138kg4GUdA-1" value="" style="endArrow=none;html=1;rounded=0;strokeColor=#007FFF;strokeWidth=6;endSize=24;endFill=0;" parent="XbT9prpmFgvPseqlX-kr-5" edge="1">
          <mxGeometry width="50" height="50" relative="1" as="geometry">
            <mxPoint y="663.2668035710336" as="sourcePoint" />
            <mxPoint x="846.3" y="74.26680357103362" as="targetPoint" />
          </mxGeometry>
        </mxCell>
        <mxCell id="XbT9prpmFgvPseqlX-kr-2" value="" style="curved=1;endArrow=classic;html=1;rounded=0;strokeWidth=8;strokeColor=#666666;" parent="XbT9prpmFgvPseqlX-kr-5" edge="1">
          <mxGeometry width="50" height="50" relative="1" as="geometry">
            <mxPoint x="466.3" y="346.2668035710336" as="sourcePoint" />
            <mxPoint x="496.3" y="436.2668035710336" as="targetPoint" />
            <Array as="points">
              <mxPoint x="566.3" y="346.2668035710336" />
            </Array>
          </mxGeometry>
        </mxCell>
        <mxCell id="XbT9prpmFgvPseqlX-kr-3" value="&lt;font style=&quot;font-size: 33px;&quot;&gt;夹角&lt;/font&gt;" style="text;html=1;align=center;verticalAlign=middle;whiteSpace=wrap;rounded=0;" parent="XbT9prpmFgvPseqlX-kr-5" vertex="1">
          <mxGeometry x="406.3" y="366.2668035710336" width="150" height="30" as="geometry" />
        </mxCell>
        <mxCell id="XbT9prpmFgvPseqlX-kr-13" value="&lt;font style=&quot;font-size: 33px;&quot;&gt;夹角&lt;/font&gt;" style="text;html=1;align=center;verticalAlign=middle;whiteSpace=wrap;rounded=0;rotation=0;" parent="XbT9prpmFgvPseqlX-kr-5" vertex="1">
          <mxGeometry x="386.3" y="476.27" width="150" height="30" as="geometry" />
        </mxCell>
        <mxCell id="XbT9prpmFgvPseqlX-kr-7" value="" style="rounded=0;whiteSpace=wrap;html=1;rotation=40;" parent="1" vertex="1">
          <mxGeometry x="983" y="1082.0031964289665" width="190" height="190" as="geometry" />
        </mxCell>
        <mxCell id="XbT9prpmFgvPseqlX-kr-8" value="&lt;font color=&quot;#007fff&quot; style=&quot;font-size: 40px;&quot;&gt;物体边长&lt;/font&gt;" style="text;html=1;align=center;verticalAlign=middle;whiteSpace=wrap;rounded=0;fontSize=24;fontColor=#FF3333;fontStyle=1;rotation=40;" parent="1" vertex="1">
          <mxGeometry x="980" y="1056.0031964289665" width="380" height="30" as="geometry" />
        </mxCell>
        <mxCell id="XbT9prpmFgvPseqlX-kr-9" value="&lt;font color=&quot;#000000&quot; style=&quot;font-size: 40px;&quot;&gt;正方形物体X+方向&lt;/font&gt;" style="text;html=1;align=center;verticalAlign=middle;whiteSpace=wrap;rounded=0;fontSize=24;fontColor=#FF3333;fontStyle=1;rotation=40;" parent="1" vertex="1">
          <mxGeometry x="882" y="1196.0031964289665" width="380" height="30" as="geometry" />
        </mxCell>
        <mxCell id="XbT9prpmFgvPseqlX-kr-10" value="" style="endArrow=classic;html=1;rounded=0;strokeColor=#000000;strokeWidth=6;endSize=24;entryX=1.02;entryY=0.446;entryDx=0;entryDy=0;entryPerimeter=0;" parent="1" edge="1">
          <mxGeometry width="50" height="50" relative="1" as="geometry">
            <mxPoint x="1029" y="1123.0031964289665" as="sourcePoint" />
            <mxPoint x="1144" y="1227.0031964289665" as="targetPoint" />
          </mxGeometry>
        </mxCell>
        <mxCell id="XbT9prpmFgvPseqlX-kr-11" value="" style="endArrow=none;html=1;rounded=0;strokeColor=#007FFF;strokeWidth=6;endSize=24;endFill=0;" parent="1" edge="1">
          <mxGeometry width="50" height="50" relative="1" as="geometry">
            <mxPoint x="463" y="529.0031964289664" as="sourcePoint" />
            <mxPoint x="1251" y="1194.0031964289665" as="targetPoint" />
          </mxGeometry>
        </mxCell>
        <mxCell id="XbT9prpmFgvPseqlX-kr-12" value="" style="curved=1;endArrow=classic;html=1;rounded=0;strokeWidth=8;strokeColor=#666666;" parent="1" edge="1">
          <mxGeometry width="50" height="50" relative="1" as="geometry">
            <mxPoint x="890" y="880" as="sourcePoint" />
            <mxPoint x="930" y="780" as="targetPoint" />
            <Array as="points">
              <mxPoint x="1000" y="860" />
            </Array>
          </mxGeometry>
        </mxCell>
      </root>
    </mxGraphModel>
  </diagram>
</mxfile>
